<svg width="30" height="30" viewBox="0 0 30 30" fill="none" xmlns="http://www.w3.org/2000/svg">
<path d="M26.3156 21.2437L24.7125 18.9375C24.4937 18.624 24.3759 18.2511 24.375 17.8687V11.25C24.375 8.7636 23.3873 6.37903 21.6291 4.62087C19.871 2.86272 17.4864 1.875 15 1.875C12.5136 1.875 10.129 2.86272 8.37087 4.62087C6.61272 6.37903 5.625 8.7636 5.625 11.25V17.8687C5.62409 18.2511 5.50633 18.624 5.2875 18.9375L3.68437 21.2437C3.44163 21.5127 3.28201 21.8462 3.22481 22.204C3.16761 22.5617 3.21528 22.9284 3.36205 23.2596C3.50883 23.5908 3.74842 23.8725 4.05186 24.0704C4.35529 24.2683 4.70958 24.3741 5.07187 24.375H10.4062C10.6214 25.4346 11.1963 26.3873 12.0335 27.0716C12.8707 27.7559 13.9187 28.1297 15 28.1297C16.0813 28.1297 17.1293 27.7559 17.9665 27.0716C18.8037 26.3873 19.3786 25.4346 19.5937 24.375H24.9281C25.2904 24.3741 25.6447 24.2683 25.9481 24.0704C26.2516 23.8725 26.4912 23.5908 26.6379 23.2596C26.7847 22.9284 26.8324 22.5617 26.7752 22.204C26.718 21.8462 26.5584 21.5127 26.3156 21.2437ZM15 26.25C14.4197 26.2484 13.8542 26.0673 13.3809 25.7316C12.9076 25.3959 12.5497 24.9221 12.3562 24.375H17.6437C17.4503 24.9221 17.0924 25.3959 16.6191 25.7316C16.1458 26.0673 15.5803 26.2484 15 26.25ZM5.07187 22.5C5.11425 22.4607 5.15199 22.4166 5.18437 22.3687L6.825 20.0062C7.26266 19.3792 7.49819 18.6334 7.5 17.8687V11.25C7.5 9.26088 8.29017 7.35322 9.6967 5.9467C11.1032 4.54018 13.0109 3.75 15 3.75C16.9891 3.75 18.8968 4.54018 20.3033 5.9467C21.7098 7.35322 22.5 9.26088 22.5 11.25V17.8687C22.5018 18.6334 22.7373 19.3792 23.175 20.0062L24.8156 22.3687C24.848 22.4166 24.8857 22.4607 24.9281 22.5H5.07187Z" fill="#F97C10"/>
<circle cx="22" cy="7" r="5.5" fill="#E201B6" stroke="#F8EAB0" stroke-width="3"/>
</svg>
